<?xml version="1.0" encoding="UTF-8" standalone="no"?>
<svg
   xmlns:dc="http://purl.org/dc/elements/1.1/"
   xmlns:cc="http://creativecommons.org/ns#"
   xmlns:rdf="http://www.w3.org/1999/02/22-rdf-syntax-ns#"
   xmlns:svg="http://www.w3.org/2000/svg"
   xmlns="http://www.w3.org/2000/svg"
   xmlns:sodipodi="http://sodipodi.sourceforge.net/DTD/sodipodi-0.dtd"
   xmlns:inkscape="http://www.inkscape.org/namespaces/inkscape"
   inkscape:version="1.0 (1.0+r73+1)"
   sodipodi:docname="TwoPlayer.svg"
   xml:space="preserve"
   style="enable-background:new 0 0 477.869 477.869;"
   viewBox="0 0 477.869 477.869"
   y="0px"
   x="0px"
   id="Capa_1"
   version="1.1"><metadata
   id="metadata43"><rdf:RDF><cc:Work
       rdf:about=""><dc:format>image/svg+xml</dc:format><dc:type
         rdf:resource="http://purl.org/dc/dcmitype/StillImage" /></cc:Work></rdf:RDF></metadata><defs
   id="defs41" /><sodipodi:namedview
   inkscape:current-layer="Capa_1"
   inkscape:window-maximized="1"
   inkscape:window-y="25"
   inkscape:window-x="0"
   inkscape:cy="238.93449"
   inkscape:cx="238.93449"
   inkscape:zoom="1.7724523"
   showgrid="false"
   id="namedview39"
   inkscape:window-height="1031"
   inkscape:window-width="1920"
   inkscape:pageshadow="2"
   inkscape:pageopacity="0"
   guidetolerance="10"
   gridtolerance="10"
   objecttolerance="10"
   borderopacity="1"
   bordercolor="#666666"
   pagecolor="#ffffff" />
<g
   style="fill:#3bba9c;fill-opacity:1"
   id="g6">
	<g
   style="fill:#3bba9c;fill-opacity:1"
   id="g4">
		<path
   style="fill:#3bba9c;fill-opacity:1"
   id="path2"
   d="m 387.415,233.496 c 48.976,-44.029 52.987,-119.424 8.958,-168.4 C 355.991,20.177 288.4,12.546 239.02,47.332 185.19,9.342 110.756,22.183 72.766,76.012 37.907,125.405 45.507,193.066 90.455,233.495 34.606,262.935 -0.251,320.976 0.002,384.108 v 51.2 c 0,9.426 7.641,17.067 17.067,17.067 h 443.733 c 9.426,0 17.067,-7.641 17.067,-17.067 v -51.2 C 478.121,320.976 443.264,262.935 387.415,233.496 Z M 307.201,59.842 c 47.062,-0.052 85.256,38.057 85.309,85.119 0.037,33.564 -19.631,64.023 -50.237,77.799 -1.314,0.597 -2.628,1.143 -3.959,1.707 -4.212,1.699 -8.556,3.051 -12.988,4.045 -0.853,0.188 -1.707,0.29 -2.577,0.461 -4.952,0.949 -9.977,1.457 -15.019,1.519 -2.27,0 -4.557,-0.171 -6.827,-0.375 -0.853,0 -1.707,0 -2.56,-0.171 -9.7,-1.142 -19.136,-3.923 -27.904,-8.226 -0.324,-0.154 -0.7,-0.137 -1.024,-0.273 -1.707,-0.819 -3.413,-1.536 -4.932,-2.458 0.137,-0.171 0.222,-0.358 0.358,-0.529 7.826,-10.056 13.996,-21.296 18.278,-33.297 l 0.529,-1.434 c 1.947,-5.732 3.459,-11.602 4.523,-17.562 0.154,-0.87 0.273,-1.707 0.41,-2.645 0.987,-6.067 1.506,-12.2 1.553,-18.347 -0.049,-6.135 -0.568,-12.257 -1.553,-18.313 -0.137,-0.887 -0.256,-1.707 -0.41,-2.645 -1.064,-5.959 -2.576,-11.83 -4.523,-17.562 l -0.529,-1.434 C 278.837,93.22 272.666,81.98 264.841,71.924 c -0.137,-0.171 -0.222,-0.358 -0.358,-0.529 12.966,-7.564 27.707,-11.552 42.718,-11.553 z M 85.335,145.176 c -0.121,-47.006 37.886,-85.21 84.892,-85.331 22.034,-0.057 43.232,8.434 59.134,23.686 0.99,0.956 1.963,1.911 2.918,2.901 2.931,3.071 5.634,6.351 8.09,9.813 0.751,1.058 1.434,2.185 2.133,3.277 2.385,3.671 4.479,7.523 6.263,11.52 0.427,0.973 0.751,1.963 1.126,2.935 1.799,4.421 3.215,8.989 4.233,13.653 0.12,0.512 0.154,1.024 0.256,1.553 2.162,10.597 2.162,21.522 0,32.119 -0.102,0.529 -0.137,1.041 -0.256,1.553 -1.017,4.664 -2.433,9.232 -4.233,13.653 -0.375,0.973 -0.7,1.963 -1.126,2.935 -1.786,3.991 -3.88,7.837 -6.263,11.503 -0.7,1.092 -1.382,2.219 -2.133,3.277 -2.455,3.463 -5.159,6.742 -8.09,9.813 -0.956,0.99 -1.929,1.946 -2.918,2.901 -6.91,6.585 -14.877,11.962 -23.569,15.906 -1.382,0.631 -2.782,1.212 -4.198,1.707 -4.114,1.633 -8.347,2.945 -12.663,3.925 -1.075,0.239 -2.185,0.375 -3.277,0.563 -4.634,0.863 -9.333,1.336 -14.046,1.417 h -1.877 c -4.713,-0.08 -9.412,-0.554 -14.046,-1.417 -1.092,-0.188 -2.202,-0.324 -3.277,-0.563 -4.316,-0.98 -8.55,-2.292 -12.663,-3.925 -1.417,-0.563 -2.816,-1.143 -4.198,-1.707 C 105.013,209.057 85.374,178.677 85.335,145.176 Z M 307.201,418.242 H 34.135 v -34.133 c -0.25,-57.833 36.188,-109.468 90.76,-128.614 29.296,12.197 62.249,12.197 91.546,0 5.698,2.082 11.251,4.539 16.623,7.356 3.55,1.826 6.827,3.908 10.24,6.007 2.219,1.382 4.471,2.731 6.605,4.25 3.294,2.338 6.4,4.881 9.455,7.492 1.963,1.707 3.908,3.413 5.751,5.12 2.816,2.662 5.461,5.478 8.004,8.363 1.826,2.082 3.601,4.198 5.291,6.383 2.236,2.867 4.369,5.803 6.349,8.823 1.707,2.56 3.226,5.222 4.727,7.885 1.707,2.935 3.277,5.871 4.71,8.926 1.434,3.055 2.697,6.4 3.925,9.66 1.075,2.833 2.219,5.649 3.106,8.533 1.195,3.959 2.031,8.055 2.867,12.151 0.512,2.423 1.178,4.796 1.553,7.253 1.011,6.757 1.53,13.579 1.553,20.412 v 34.133 z m 136.534,0 h -102.4 v -34.133 c 0,-5.342 -0.307,-10.633 -0.785,-15.872 -0.137,-1.536 -0.375,-3.055 -0.546,-4.591 -0.461,-3.772 -0.99,-7.509 -1.707,-11.213 -0.307,-1.581 -0.631,-3.169 -0.973,-4.762 -0.819,-3.8 -1.769,-7.566 -2.85,-11.298 -0.358,-1.229 -0.683,-2.475 -1.058,-3.686 -4.779,-15.277 -11.704,-29.797 -20.565,-43.127 l -0.666,-0.973 c -2.935,-4.358 -6.07,-8.573 -9.404,-12.646 l -0.119,-0.154 c -3.413,-4.232 -7.117,-8.346 -11.008,-12.237 0.222,0 0.461,0 0.7,0 4.816,0.633 9.666,0.975 14.524,1.024 h 0.939 c 4.496,-0.039 8.985,-0.33 13.449,-0.87 1.399,-0.171 2.782,-0.427 4.181,-0.649 3.63,-0.557 7.214,-1.28 10.752,-2.167 1.007,-0.256 2.031,-0.495 3.055,-0.785 4.643,-1.263 9.203,-2.814 13.653,-4.642 54.612,19.127 91.083,70.785 90.829,128.649 v 34.132 z" />
	</g>
</g>
<g
   style="fill:#3bba9c;fill-opacity:1"
   id="g8">
</g>
<g
   style="fill:#3bba9c;fill-opacity:1"
   id="g10">
</g>
<g
   style="fill:#3bba9c;fill-opacity:1"
   id="g12">
</g>
<g
   style="fill:#3bba9c;fill-opacity:1"
   id="g14">
</g>
<g
   style="fill:#3bba9c;fill-opacity:1"
   id="g16">
</g>
<g
   style="fill:#3bba9c;fill-opacity:1"
   id="g18">
</g>
<g
   style="fill:#3bba9c;fill-opacity:1"
   id="g20">
</g>
<g
   style="fill:#3bba9c;fill-opacity:1"
   id="g22">
</g>
<g
   style="fill:#3bba9c;fill-opacity:1"
   id="g24">
</g>
<g
   style="fill:#3bba9c;fill-opacity:1"
   id="g26">
</g>
<g
   style="fill:#3bba9c;fill-opacity:1"
   id="g28">
</g>
<g
   style="fill:#3bba9c;fill-opacity:1"
   id="g30">
</g>
<g
   style="fill:#3bba9c;fill-opacity:1"
   id="g32">
</g>
<g
   style="fill:#3bba9c;fill-opacity:1"
   id="g34">
</g>
<g
   style="fill:#3bba9c;fill-opacity:1"
   id="g36">
</g>
</svg>
